<?xml version="1.0" encoding="UTF-8" standalone="no"?>
<svg viewBox="0 0 318 221" version="1.1" xmlns="http://www.w3.org/2000/svg" xmlns:xlink="http://www.w3.org/1999/xlink">
    <!-- Generator: Sketch 49 (51002) - http://www.bohemiancoding.com/sketch -->
    <title>DGL Crowngray</title>
    <desc>Created with Sketch.</desc>
    <defs></defs>
    <g id="DGL-Crown" stroke="none" stroke-width="1" fill="none" fill-rule="evenodd">
        <g id="Group" transform="translate(6.000000, 0.000000)" fill="#6677CC">
            <g id="Fills">
                <path d="M95.734805,184.5 L72.80319,172.535679 L75.7942702,184.5 L95.734805,184.5 Z M187.772068,184.5 L153.5,146.242808 L119.227932,184.5 L187.772068,184.5 Z M231.20573,184.5 L234.19681,172.535679 L211.265195,184.5 L231.20573,184.5 Z M250.80319,151.464321 L239.79427,195.5 L67.2057298,195.5 L56.19681,151.464321 L109.255064,179.146888 L153.5,129.757192 L197.744936,179.146888 L250.80319,151.464321 Z" id="Line" fill-rule="nonzero"></path>
                <path d="M122.483951,132.42205 L140.840656,112.596809 L118.818543,70.020723 L154,0.87096231 L189.224,70.104341 L165.734874,112.678381 L184.016049,132.42205 L214.117514,100.170481 L228.045035,138.739001 L248.511128,128.175856 L227.059316,88.1974787 L305.725769,20.9503489 L254.747178,217.021853 L51.2358211,215.978205 L0.804210459,20.975977 L79.4406842,88.1974787 L57.9888717,128.175856 L78.4549648,138.739001 L92.3824862,100.170481 L122.483951,132.42205 Z M176.776,69.895659 L154,25.1290377 L131.181457,69.979277 L153.22101,112.589079 L176.776,69.895659 Z M122.516049,148.57795 L96.6175138,120.829519 L84.5450352,154.260999 L43.0111283,132.824144 L65.5593158,90.8025213 L20.1957895,52.024023 L59.7641789,205.021795 L246.252822,205.978147 L286.274231,52.0496511 L240.940684,90.8025213 L263.488872,132.824144 L221.954965,154.260999 L209.882486,120.829519 L183.983951,148.57795 L153.25,115.385283 L122.516049,148.57795 Z" id="Line-Copy" fill-rule="nonzero"></path>
                <polygon id="Path-2" points="130 185.306327 153.58464 159.340027 177.35863 185.306327"></polygon>
                <polygon id="Path-3" points="100.991102 140.983095 94.4438888 158.722646 107.01962 165.205042 114.824881 155.877557"></polygon>
                <polygon id="Path-3" transform="translate(202.190496, 153.090984) scale(-1, 1) translate(-202.190496, -153.090984) " points="198.547213 140.980011 192 158.719562 204.575731 165.201957 212.380992 155.874473"></polygon>
                <polygon id="Path-4" points="38.881044 80.6206887 45.6327061 107.531307 53.3528683 93.6057448"></polygon>
                <polygon id="Path-5" points="254.037043 93.7125708 280.665364 69.3174363 277.559872 65.3840533 283.582864 67.1813449 269.4545 122.64535 264.999489 121.180144 268.218604 119.854383"></polygon>
                <polygon id="Path-7" points="142.872027 69.9505118 152.613691 70.3827181 152.613691 65.7021054 176.464942 65.7021054 172.840525 58.8413529 162.057605 64.6120355 153.70185 47.5504867"></polygon>
                <polygon id="Path-8" points="152.864372 62.8545379 152.864372 75.4235295 162.004448 75.4235295 153.967128 90.5955658 142.872027 69.5595613"></polygon>
            </g>
        </g>
    </g>
</svg>