<svg xmlns="http://www.w3.org/2000/svg" viewBox="0 0 315 277"><defs><style>.cls-1{fill:#fff;}.cls-2{fill:#d6c103;}</style></defs><title>Artboard 9</title><g id="Layer_1" data-name="Layer 1"><path class="cls-1" d="M154.12618,122.3314H102.0123A148.97375,148.97375,0,0,0,154.06159,219.475c.02177-.01837.04283-.03745.06459-.05582Z"/><path class="cls-2" d="M189.4929,79.0119H119.987l-4.16895-48.10547L138.948,47.96453,154.74,21.70672l15.792,26.25781,23.12988-17.0581Zm-61.252-9H181.239l1.73731-20.042L167.91477,61.07684,154.74,39.16961,141.56516,61.07684,126.50364,49.96991Z"/><path class="cls-1" d="M155.25,260.2373l-3.97754-3.07617a210.00275,210.00275,0,0,1-81.3584-154.63867l-.376-6.85547H240.96191l-.376,6.85547a210.00275,210.00275,0,0,1-81.3584,154.63867ZM83.39063,108.667A196.9977,196.9977,0,0,0,155.25,243.71973,196.99775,196.99775,0,0,0,227.10938,108.667Z"/></g></svg>