<svg xmlns="http://www.w3.org/2000/svg" viewBox="0 0 107.74656 54.33932"><defs><style>.cls-1{fill:#d2d2d1;}</style></defs><title>DGLCrownWhite</title><g id="Layer_1" data-name="Layer 1"><path class="cls-1" d="M322.79534,317.53885l-21.002-25.5695-21.23316,25.5695L261.67441,307.122l-13.61238-7.3017-.14193-.07611,11.20736,46.56445h42.69342l42.60351-.00012,11.24228-46.71014-.04807.02624Zm26.416-9.23672.028-.01526-.3805,1.58088-.15885.7055-.00743-.01459-7.52084,31.24781-39.30207.00012h-39.392L255.71873,309.002l17.28478,9.44324,8.99932,5.739,6.71488-8.19661,12.98377-15.42169.21079-.04035L314.83294,315.871l6.65372,7.2356,9.15913-4.66144,17.26-9.42975Z" transform="translate(-247.9201 -291.96935)"/><path class="cls-1" d="M332.19277,322.94673l-1.13636.59033-10.7733,5.8858-18.459-21.9234-17.29227,20.53918L283.4226,329.457l-1.53206-.84009-20.73815-11.33008,4.76234,19.787,71.81984-.00012,4.7624-19.787L332.184,322.921Zm-63.02541,9.53711-1.565-6.50239,12.33673,6.4087.17462.09369Zm42.64444-.00013L301.80527,319.804,291.7987,332.48384h-5.52678l11.03188-13.60615-.00005-.00006,4.44568-5.48309,15.31547,19.08917Zm24.13761-6.50238-1.56509,6.50238h-10.4862l9.01358-4.92437Z" transform="translate(-247.9201 -291.96935)"/><path class="cls-1" d="M331.4088,334.711" transform="translate(-247.9201 -291.96935)"/></g></svg>