<svg xmlns="http://www.w3.org/2000/svg" viewBox="0 0 2016 1845"><defs><style>.cls-1{fill:#fcda4c;}.cls-2{fill:#e2bf13;}.cls-3{fill:#fff;}</style></defs><title>Artboard 13</title><g id="Layer_3" data-name="Layer 3"><path class="cls-1" d="M602.51,1248.37012q-50.54992,9.13476-100.58008,19.77-50.00976,10.65014-99.28992,23.17968c-32.82995,8.34034-65.42,17.24024-97.51,26.93995-3.99,1.20019-7.97009,2.40039-11.94006,3.63037v66.6997s281.40015-77.75,702-77.75c420.59009,0,702,77.75,702,77.75v-63.29q-26.31006-10.70946-53.36987-20.46-31.92-11.47485-64.66016-21.59961c-5.46-1.65039-10.8999-3.39013-16.38989-4.99023l-16.47-4.81982c-11.03-3.07032-22.07007-6.22022-33.21-9.07032-11.1001-3-22.29-5.66992-33.49-8.46L1462.74,1251.98,1454.29,1250.04l-8.47-1.83008c-22.6001-5.02-45.41016-9.27978-68.33008-13.35986q-68.83483-11.7605-139.30005-17.76026,70.37988-5.6997,141.81006-5.27978c23.75.27,47.59009.75976,71.3999,2.02978l8.94019.43018,8.92993.5498,17.87988,1.13038c11.90015.93994,23.8501,1.77978,35.75,2.9497,11.94019,1.03028,23.83008,2.35987,35.76,3.62989l17.86011,2.14013c5.96.7002,11.88989,1.54981,17.8501,2.32031q35.6997,4.84425,71.2998,11.21973,15.765,2.84985,31.52,6.03027V873.06982l-12.58984,7.37012L1619.75,790.91016l64.60986-91.63037,12.83008,7.31v-157.06L1511.5,809.49023l80.18994,114.10987v116.98s-36.37988-24.28028-210.2998-40.47022c-132.46021-12.31982-210.54-13.79-240.24024-13.79-9.2998,0-13.84985.14014-13.84985.14014V882.00977l67.86987-114.10987-127.85986-214.96L995.18994,423.9502,923.06006,552.93994l-127.86011,214.96,67.87012,114.10987V986.46s-4.55-.14014-13.8501-.14014c-29.69995,0-107.77,1.47022-240.24,13.79-173.91992,16.18994-210.29,40.47022-210.29,40.47022v-116.98l80.18018-114.10987L293.18994,549.52979v157.06l12.82007-7.31,64.61,91.63037-64.85,89.52978-12.58008-7.37012v364.86036c31.04-5.49024,62.11011-10.26026,93.20007-14.52q52.24494-7.11036,104.57-12.31006,52.3202-5.15991,104.66016-8.63037c69.7998-4.43994,139.55981-6.92969,209.21-7.02979q104.45984-.28491,208.35986,5.46Q909.345,1206.74975,806.51,1218.54C737.99,1226.31982,669.93994,1236.43018,602.51,1248.37012ZM982.94287,848.53369l-67.626-89.99121,67.374-92.102,60.98828,36.07666-15.27777,20.88477-25.34821,34.65087,40.374,53.72608Z"/><path class="cls-2" d="M1043.6792,702.51709l-15.27777,20.88477-25.34821,34.65087,40.374,53.72608L992.885,842.49219V1199.853q10.15512.50318,20.30493,1.04687-10.15786.572-20.30493,1.21729v108.72607c.76935-.00049,1.53461-.00342,2.30493-.00342,420.59009,0,702,77.75,702,77.75v-63.29q-26.31006-10.70946-53.36987-20.46-31.92-11.47485-64.66016-21.59961c-5.46-1.65039-10.8999-3.39013-16.38989-4.99023l-16.47-4.81982c-11.03-3.07032-22.07007-6.22022-33.21-9.07032-11.1001-3-22.29-5.66992-33.49-8.46L1462.74,1251.98,1454.29,1250.04l-8.47-1.83008c-22.6001-5.02-45.41016-9.27978-68.33008-13.35986q-68.83483-11.7605-139.30005-17.76026,70.37988-5.6997,141.81006-5.27978c23.75.27,47.59009.75976,71.3999,2.02978l8.94019.43018,8.92993.5498,17.87988,1.13038c11.90015.93994,23.8501,1.77978,35.75,2.9497,11.94019,1.03028,23.83008,2.35987,35.76,3.62989l17.86011,2.14013c5.96.7002,11.88989,1.54981,17.8501,2.32031q35.6997,4.84425,71.2998,11.21973,15.765,2.84985,31.52,6.03027V873.06982l-12.58984,7.37012L1619.75,790.91016l64.60986-91.63037,12.83008,7.31v-157.06L1511.5,809.49023l80.18994,114.10987v116.98s-36.37988-24.28028-210.2998-40.47022c-132.46021-12.31982-210.54-13.79-240.24024-13.79-9.2998,0-13.84985.14014-13.84985.14014V882.00977l67.86987-114.10987-127.85986-214.96L995.18994,423.9502l-2.30493,4.12207V672.4707Z"/><path class="cls-3" d="M1821.499,1225.88477c-1.458-.52735-2.47949-.86133-3.47851-1.18457l-3.63086-1.15625L1809,198,1365.78223,803.52344l58.44873,83.1875q-16.19606-1.76222-33.293-3.35449c-45.36621-4.21778-87.95069-7.53711-127.28076-9.92286l66.01318-110.998L1170.165,494.27441l-177.273-317.0498L815.605,494.27441,656.09912,762.43555l66.01318,110.998c-39.33056,2.38575-81.91552,5.70508-127.28369,9.92383q-17.08885,1.58936-33.28711,3.35352l58.4458-83.18848L180,207l-8.61035,1005.92285-4.36817,1.11328-42.56543,11.87305,6.64063,38.68164c13.54053,78.86914,33.91992,198.15625,36.3999,214.18848,1.188,15.58105,9.58789,35.69726,40.05078,50.49511,13.23243,6.42872,30.938,12.20215,54.12793,17.65235,40.813,9.59179,98.4878,18.13086,171.42237,25.38086,147.47851,14.65918,343.2539,22.73242,551.2622,22.73242,208.0127,0,403.79151-8.07324,551.27149-22.73242,72.93506-7.249,130.60986-15.78907,171.42285-25.38086,23.18994-5.4502,40.89551-11.22363,54.12793-17.65235,28.90967-14.04394,37.94873-32.876,39.811-48.07617,4.1836-18.26562,30.42481-129.71777,48.04493-204.42187l8.89453-37.71094Zm-61.30908,254.22509c0,42.47022-346.31982,76.89014-773.53,76.89014C559.46,1557,213.14,1522.58008,213.14,1480.10986c0-2.65966-36.87-217.41992-36.87-217.41992l1.11-.31006.93006-.25976,1.78992-.47022,3.44006-.89013,6.73-1.68995,6.63989-1.58984,6.61011-1.5498c4.38-1,8.77-2.02,13.13-2.96045q.27009-.05932.53992-.11963V316.66992L357.13,512.58984,542.81006,772.56006,568.98,809.18994,543.12012,846l-68.43018,97.37988V948.48c36.03-6.39014,78.33008-11.87012,126.47-16.3501C682.14014,924.6001,743.46,920.98,787.07007,919.31006V899.14014l-58.89014-99L709.01,767.8999l19.16992-32.23L855.59009,521.46973,927.29,393.25l67.8999-121.43018L1063.08008,393.25,1134.78,521.46973l127.40991,214.20019,19.16992,32.23-19.16992,32.24024-58.88989,99v20.16992c43.60986,1.66992,104.92993,5.29,185.90991,12.81982,48.14014,4.48,90.43994,9.96,126.48,16.3501v-5.1001L1447.25,846l-25.85986-36.81006,26.16992-36.62988L1633.24,512.58984l139.94995-195.91992v945.14014c5.64014,1.50976,11.29,3.0498,16.98,4.66992,3.01.87988,5.99,1.73,9.06006,2.66992l2.29.68994,2.33984.73,2.40015.76026c.84985.27978,1.55005.48974,2.74.91992C1809,1272.25,1760.18994,1479.18994,1760.18994,1480.10986Z"/></g><g id="Layer_7" data-name="Layer 7"><path class="cls-3" d="M1589.27,1427.85986c-117.55-21.56006-349.21-48.66992-594.08008-48.66992-210.25,0-552.72,42.37012-566.91992,44.8501C441,1422,781.94995,1431,986.65991,1431,1210.87012,1431,1447.99,1412.71,1589.27,1427.85986Z"/></g></svg>