<svg xmlns="http://www.w3.org/2000/svg" viewBox="0 0 373.48133 373.48133"><defs><style>.cls-1,.cls-5,.cls-6{fill:none;}.cls-1{stroke:#fff;stroke-width:29px;}.cls-1,.cls-3,.cls-4,.cls-5,.cls-6{stroke-miterlimit:10;}.cls-2{fill:#fff;}.cls-3{fill:#6c54e8;}.cls-3,.cls-4{stroke:#000;stroke-width:10px;}.cls-4{fill:#31b141;}.cls-5{stroke:#25842e;}.cls-5,.cls-6{stroke-width:2px;}.cls-6{stroke:#463da3;}</style></defs><title>Artboard 2</title><g id="Layer_5" data-name="Layer 5"><polygon class="cls-1" points="238.008 104.394 225.341 104.394 179.674 60.394 134.008 104.394 121.341 104.394 121.008 243.394 179.674 282.727 238.341 243.394 238.008 104.394"/></g><g id="Layer_2" data-name="Layer 2"><polygon class="cls-2" points="245.091 201.644 116.008 230.644 116.008 151.698 245.091 122.698 245.091 201.644"/><path d="M139.64407,215.22307l-22.939,4.41283V162.0522c.01649-1.0735,0-3.03026,0-3.03026s1.52814-.33057,2.33816-.49611l21.52873-4.41216q7.98413-1.63638,11.78641,1.81453,3.79954,3.4521,3.66569,12.27809l-.40186,26.48061q-.13416,8.82932-4.06335,13.86426Q147.62744,213.58732,139.64407,215.22307Zm-8.64538-42.98681-.43838,28.85754,7.602-1.55837a3.382,3.382,0,0,0,2.28393-1.48406,6.27751,6.27751,0,0,0,.78233-3.29058l.31289-20.62515a4.45585,4.45585,0,0,0-.68749-2.94656,2.20612,2.20612,0,0,0-2.25328-.51119Z"/><path d="M196.60675,204.13859l-20.1231,4.12415q-7.98561,1.63629-11.78542-1.81448-3.80255-3.45026-3.66715-12.2795l.40186-26.48062q.1341-8.8253,4.06481-13.86284,3.92845-5.0353,11.91381-6.672l15.97073-3.27329,2.25545-.4738-.00135,3.0569-.15579,10.2698.00657,3.03283-2.35356.49487-13.28751,2.723c-1.32076.2706-3.87735.76634-3.87735.76634s-.0624,2.86248-.08411,4.27553l-.30768,20.28559a4.63541,4.63541,0,0,0,.68733,2.99,2.08488,2.08488,0,0,0,2.18809.56715l6.19632-1.27036.20093-13.24031a4.56523,4.56523,0,0,1,.57885-2.44545,2.64847,2.64847,0,0,1,1.76814-1.08225l9.901-2.02875c.809-.16627,2.25408-.47305,2.25408-.47305v3.05748l-.39794,26.22528-.0482,3.07661Z"/><path d="M206.69637,202.05209l.88493-58.0372c.01649-1.07349.02541-3.074.02541-3.074l12.223-2.48111,2.26155-.42855-.00794,3.01162-.638,42.01363,8.98441-1.79353V164.44155l13.43739-2.75686v32.75186Z"/><polygon class="cls-3" points="130.038 105.406 151.705 84.24 170.538 105.406 130.038 105.406"/><polygon class="cls-3" points="231.697 105.406 210.031 84.24 191.197 105.406 231.697 105.406"/><polygon class="cls-4" points="120.705 228.934 120.705 242.823 179.264 283.823 239.341 242.823 239.341 205.961 120.705 228.934"/><polygon class="cls-3" points="239.497 125.941 239.497 106.406 209.83 106.406 180.163 80.406 150.497 106.406 120.83 106.406 120.83 148.914 239.497 125.941"/></g><g id="Layer_6" data-name="Layer 6"><path class="cls-5" d="M179.26608,246.494a1.5,1.5,0,1,1,1.5,1.5"/><path class="cls-5" d="M186.37546,246.494a5.60938,5.60938,0,1,1-5.60938-5.60937"/><path class="cls-5" d="M170.01608,246.494a10.75,10.75,0,1,1,10.75,10.75"/><path class="cls-5" d="M180.76608,262.6607A16.16667,16.16667,0,1,1,196.93275,246.494"/><line class="cls-6" x1="126.00775" y1="118.08153" x2="154.84108" y2="118.01903"/><line class="cls-6" x1="126.00775" y1="124.45653" x2="144.46608" y2="124.51903"/><line class="cls-6" x1="126.00775" y1="130.70653" x2="134.46608" y2="130.76903"/><line class="cls-5" x1="215.21608" y1="223.01903" x2="234.34108" y2="223.01903"/><line class="cls-5" x1="222.25775" y1="228.58153" x2="234.34108" y2="228.58153"/><line class="cls-5" x1="227.92442" y1="234.14403" x2="234.34108" y2="234.14403"/></g></svg>