<?xml version="1.0" encoding="iso-8859-1"?>
<!-- Generator: Adobe Illustrator 17.1.0, SVG Export Plug-In . SVG Version: 6.00 Build 0)  -->
<!DOCTYPE svg PUBLIC "-//W3C//DTD SVG 1.1//EN" "http://www.w3.org/Graphics/SVG/1.1/DTD/svg11.dtd">
<svg version="1.1" id="Capa_1" xmlns="http://www.w3.org/2000/svg" xmlns:xlink="http://www.w3.org/1999/xlink" x="0px" y="0px"
	 viewBox="0 0 213.563 213.563" style="enable-background:new 0 0 213.563 213.563;" xml:space="preserve">
<path fill="#b8c7ce" d="M106.782,213.563c-0.774,0-1.549-0.18-2.259-0.539c-1.767-0.896-43.521-22.334-65.278-58.595
	c-21.583-35.971-25.604-71.428-25.765-72.92c-0.245-2.271,1.082-4.421,3.223-5.22c0.134-0.051,15.014-5.869,15.014-18.489
	c0-1.935-0.294-4.443-1.693-5.406c-1.997-1.375-6.417-0.403-8.127,0.253c-1.537,0.588-3.276,0.386-4.632-0.546
	c-1.356-0.934-2.177-2.47-2.177-4.115V17.724c0-1.693,0.857-3.271,2.277-4.193c1.421-0.924,3.21-1.063,4.757-0.374
	c1.891,0.822,6.622,2.048,9.039,0.525c2.25-1.412,2.476-6.037,2.232-8.056c-0.171-1.42,0.272-2.859,1.221-3.93
	C35.562,0.626,36.922,0,38.352,0h136.858c1.44,0,2.81,0.621,3.759,1.703c0.949,1.082,1.386,2.521,1.198,3.949
	c-0.24,1.992-0.015,6.617,2.234,8.029c2.42,1.52,7.148,0.296,9.06-0.534c1.546-0.672,3.336-0.525,4.745,0.4
	c1.409,0.924,2.269,2.49,2.269,4.176v30.262c0,1.654-0.818,3.201-2.185,4.133c-1.366,0.931-3.105,1.127-4.646,0.52
	c-1.689-0.646-6.11-1.618-8.106-0.245c-1.399,0.963-1.693,3.473-1.693,5.407c0,12.62,14.879,18.438,15.03,18.495
	c2.123,0.81,3.45,2.955,3.207,5.214c-0.161,1.492-4.182,36.949-25.765,72.92c-21.756,36.261-63.511,57.699-65.277,58.595
	C108.331,213.383,107.556,213.563,106.782,213.563z M23.926,83.927c1.564,9.621,7.271,37.653,23.894,65.357
	c17.48,29.133,50.111,48.67,58.962,53.598c8.85-4.927,41.481-24.465,58.961-53.598c16.666-27.776,22.344-55.746,23.897-65.355
	c-6.173-3.284-17.793-11.42-17.793-26.129c0-7.886,3.303-11.791,6.074-13.679c3.337-2.273,7.268-2.629,10.556-2.343V24.217
	c-3.48,0.453-7.7,0.252-11.392-2.066c-4.811-3.021-6.389-8.151-6.837-12.15H43.315c-0.448,3.999-2.026,9.13-6.837,12.15
	c-3.691,2.318-7.912,2.523-11.392,2.066v17.562c3.288-0.286,7.219,0.069,10.557,2.343c2.771,1.888,6.074,5.793,6.074,13.679
	C41.717,72.507,30.1,80.642,23.926,83.927z M57.618,145.064c-3.339,0-6.478-1.3-8.839-3.661c-2.361-2.36-3.661-5.499-3.661-8.838
	c0-3.34,1.3-6.479,3.662-8.84l17.029-17.028l-6.715-6.716c-1.953-1.952-1.953-5.118,0-7.07c1.953-1.953,5.118-1.953,7.071,0
	l5.566,5.565l15.051-15.051L70.808,67.452c-8.475-8.476-15.222-18.334-20.054-29.3l-3.26-7.398c-0.832-1.888-0.418-4.093,1.04-5.551
	c1.458-1.46,3.661-1.874,5.552-1.04l7.398,3.26c10.967,4.832,20.825,11.579,29.299,20.054l15.974,15.974l15.974-15.974
	c8.474-8.475,18.332-15.222,29.299-20.054l0,0l7.398-3.26c1.889-0.832,4.093-0.419,5.552,1.04c1.458,1.458,1.872,3.663,1.04,5.551
	l-3.26,7.398c-4.833,10.969-11.58,20.826-20.054,29.3l-15.973,15.974L141.906,98.6l5.688-5.688c1.953-1.953,5.118-1.953,7.071,0
	c1.953,1.952,1.953,5.118,0,7.07l-6.715,6.716l17.03,17.029c2.361,2.36,3.661,5.499,3.661,8.839c0,3.339-1.3,6.478-3.662,8.839
	c-4.874,4.873-12.803,4.873-17.677,0l-17.03-17.03l-6.715,6.715c-1.953,1.953-5.118,1.953-7.071,0c-1.953-1.952-1.953-5.118,0-7.07
	l5.443-5.443l-15.173-15.174l-15.051,15.051l5.566,5.566c1.953,1.952,1.953,5.118,0,7.07c-1.953,1.953-5.118,1.953-7.071,0
	l-6.715-6.715l-17.03,17.029C64.096,143.765,60.957,145.064,57.618,145.064z M72.88,113.769l-17.029,17.028
	c-0.637,0.638-0.732,1.382-0.732,1.769c0,0.386,0.095,1.13,0.732,1.767c0.976,0.977,2.561,0.976,3.536,0.001l0,0l17.029-17.029
	L72.88,113.769z M137.345,117.304l17.029,17.029c0.975,0.975,2.561,0.975,3.535,0c0.637-0.638,0.732-1.382,0.732-1.768
	c0-0.387-0.095-1.131-0.732-1.768c0,0,0,0,0-0.001l-17.029-17.028L137.345,117.304z M82.695,109.441l1.94,1.939L99.686,96.33
	l-5.834-5.833l-15.05,15.051L82.695,109.441z M111.215,93.718l17.664,17.663l5.833-5.833l-51-51.001
	c-6.368-6.368-13.607-11.647-21.574-15.74c4.092,7.966,9.373,15.206,15.741,21.575l18.583,18.583
	c0.375,0.215,0.728,0.483,1.048,0.804l12.905,12.904C110.73,92.986,110.998,93.339,111.215,93.718z M113.951,70.398l5.834,5.834
	l15.851-15.852c6.368-6.368,11.648-13.606,15.741-21.574c-7.967,4.093-15.206,9.372-21.574,15.74L113.951,70.398z"/>
<g>
</g>
<g>
</g>
<g>
</g>
<g>
</g>
<g>
</g>
<g>
</g>
<g>
</g>
<g>
</g>
<g>
</g>
<g>
</g>
<g>
</g>
<g>
</g>
<g>
</g>
<g>
</g>
<g>
</g>
</svg>